<?xml version="1.0" encoding="UTF-8" standalone="no"?>
<svg
   xmlns:dc="http://purl.org/dc/elements/1.1/"
   xmlns:cc="http://creativecommons.org/ns#"
   xmlns:rdf="http://www.w3.org/1999/02/22-rdf-syntax-ns#"
   xmlns:svg="http://www.w3.org/2000/svg"
   xmlns="http://www.w3.org/2000/svg"
   version="1.1"
   id="svg2"
   xml:space="preserve"
   width="445.84125"
   height="272.26266"
   viewBox="0 0 445.84128 272.26267"><metadata
     id="metadata8"><rdf:RDF><cc:Work
         rdf:about=""><dc:format>image/svg+xml</dc:format><dc:type
           rdf:resource="http://purl.org/dc/dcmitype/StillImage" /><dc:title></dc:title></cc:Work></rdf:RDF></metadata><defs
     id="defs6"><clipPath
       clipPathUnits="userSpaceOnUse"
       id="clipPath18"><path
         d="M 0,648 H 1152 V 0 H 0 Z"
         id="path16" /></clipPath></defs><g
     id="g927"><path
       id="path48"
       style="fill:#ffffff;fill-opacity:1;fill-rule:nonzero;stroke:none;stroke-width:1.33333325"
       d="m 268.41195,169.7044 c -2.36667,1.56267 -4.836,2.99067 -7.36933,4.27467 l 10.776,10.776 h 14.45466 l -6.136,-6.24134 -9.996,-9.996 c -0.548,0.384 -1.18133,0.82534 -1.72933,1.18667" /><path
       id="path52"
       style="fill:#ffffff;fill-opacity:1;fill-rule:nonzero;stroke:none;stroke-width:1.33333325"
       d="m 174.61436,72.99147 c -1.96667,2.976 -3.688,6.12533 -5.14,9.42 l 7.928,7.928 32.86533,32.86533 26.80267,26.80267 c 1.65733,-0.368 3.296,-0.82934 4.90533,-1.396 1.97333,-0.69334 3.89867,-1.536 5.74933,-2.50934 L 217.54903,115.9248 182.07036,80.44747 c 9.35333,-15.46133 26.32933,-25.81733 45.68,-25.81733 14.13733,0 27.004,5.528 36.56,14.53333 10.32933,9.73467 16.788,23.53333 16.788,38.81333 0,19.35067 -10.35734,36.328 -25.81734,45.68133 -3.10666,1.87734 -6.41866,3.44534 -9.892,4.66667 -4.20933,1.47867 -8.65599,2.44133 -13.26666,2.81867 -1.44267,0.11733 -2.89867,0.18133 -4.372,0.18133 -29.41467,0 -53.348,-23.932 -53.348,-53.348 0,-1.47066 0.068,-2.92533 0.188,-4.36533 0.0387,-0.45733 0.0827,-0.91333 0.132,-1.368 l -8.91067,-8.90933 c -1.112,4.702656 -1.704,9.604 -1.704,14.64266 0,35.09333 28.55067,63.644 63.64267,63.644 4.604,0 9.09333,-0.49467 13.42133,-1.428 4.21733,-0.91067 8.28,-2.23867 12.14533,-3.93867 3.29467,-1.452 6.444,-3.17466 9.41867,-5.14 17.252,-11.39733 28.65733,-30.95866 28.65733,-53.13733 0,-18.11866 -7.61066,-34.492 -19.80266,-46.09466 -11.42134,-10.868 -26.86534,-17.548 -43.84,-17.548 -22.17733,0 -41.74,11.40666 -53.136,28.65733" /><path
       id="path56"
       style="fill:#fd2b12;fill-opacity:1;fill-rule:nonzero;stroke:none;stroke-width:1.33333325"
       d="m 253.79995,181.16533 -0.69333,0.24133 c -8.14934,2.82134 -16.68,4.252 -25.356,4.252 -42.83333,0 -77.68133,-34.848 -77.68133,-77.68133 0,-42.83466 34.848,-77.68266 77.68133,-77.68266 7.63733,0 15.188,1.112 22.44133,3.30533 l 0.67067,0.20267 8.10133,-8.10134 L 257.22128,25.08 C 247.77195,21.70933 237.85595,20 227.75062,20 c -48.51067,0 -87.97733,39.46667 -87.97733,87.97733 0,48.51067 39.46666,87.97733 87.97733,87.97733 11.164,0 22.052,-2.07466 32.36,-6.16666 l 1.65466,-0.656 z" /></g><g
     id="flowRoot817"
     style="font-style:normal;font-variant:normal;font-weight:bold;font-stretch:expanded;font-size:40px;line-height:1.25;font-family:BunkenTechSansProWideW01-Bd;-inkscape-font-specification:'BunkenTechSansProWideW01-Bd Bold Expanded';letter-spacing:1.04999995px;word-spacing:0px;fill:#ffffff;fill-opacity:1;stroke:none"
     transform="translate(185.34484,9.743336)"
     aria-label="QUANTUITIVE"><path
       id="path93"
       style="fill:#ffffff;fill-opacity:1"
       d="m -124.54484,242.51933 h 5.84 l -2.64,-5.68 h 3.52 c 1.28,0 2.4,-0.08 3.28,-0.28 0.88,-0.16 1.6,-0.52 2.16,-1.04 0.52,-0.48 0.88,-1.16 1.12,-2 0.24,-0.84 0.36,-1.92 0.36,-3.28 v -15.08 c 0,-1.28 -0.12,-2.36 -0.36,-3.24 -0.24,-0.84 -0.6,-1.52 -1.12,-2.04 -0.56,-0.48 -1.28,-0.84 -2.16,-1.04 -0.88,-0.16 -2,-0.28 -3.28,-0.28 h -20.6 c -1.36,0 -2.44,0.12 -3.32,0.28 -0.88,0.2 -1.6,0.56 -2.12,1.04 -0.56,0.52 -0.92,1.2 -1.16,2.04 -0.24,0.88 -0.32,1.96 -0.32,3.24 v 15.08 c 0,1.36 0.08,2.44 0.32,3.28 0.24,0.84 0.6,1.52 1.16,2 0.52,0.52 1.24,0.88 2.12,1.04 0.88,0.2 1.96,0.28 3.32,0.28 h 11.32 z m 7.16,-28.16 v 16.44 c 0,0.36 -0.08,0.6 -0.2,0.68 -0.16,0.08 -0.4,0.12 -0.76,0.12 h -5.36 l -3.28,-7.24 -4.68,2.04 2.32,5.2 h -8.52 c -0.4,0 -0.64,-0.04 -0.8,-0.12 -0.16,-0.08 -0.2,-0.32 -0.2,-0.68 v -16.44 c 0,-0.36 0.04,-0.6 0.2,-0.68 0.16,-0.08 0.4,-0.12 0.8,-0.12 h 19.52 c 0.36,0 0.6,0.04 0.76,0.12 0.12,0.08 0.2,0.32 0.2,0.68 z" /><path
       id="path95"
       style="fill:#ffffff;fill-opacity:1"
       d="m -96.55172,236.83933 h 17.6 c 1.32,0 2.44,-0.08 3.32,-0.28 0.88,-0.16 1.56,-0.52 2.12,-1 0.52,-0.48 0.88,-1.16 1.12,-2.04 0.24,-0.84 0.36,-1.92 0.36,-3.28 v -21.48 h -6.48 v 22.04 c 0,0.36 -0.08,0.6 -0.2,0.68 -0.16,0.08 -0.4,0.12 -0.76,0.12 h -16.52 c -0.4,0 -0.64,-0.04 -0.8,-0.12 -0.16,-0.08 -0.2,-0.32 -0.2,-0.68 v -22.04 h -6.48 v 21.48 c 0,1.36 0.08,2.44 0.32,3.28 0.2,0.88 0.56,1.56 1.12,2.04 0.52,0.48 1.24,0.84 2.12,1 0.88,0.2 2,0.28 3.36,0.28 z" /><path
       id="path97"
       style="fill:#ffffff;fill-opacity:1"
       d="m -36.56547,236.63933 h 7.36 l -15.92,-27.88 h -6.8 l -15.84,27.88 h 7.12 l 3.04,-5.56 h 17.96 z m -18.52,-10.32 6.44,-11.56 h 0.04 l 6.48,11.56 z" /><path
       id="path99"
       style="fill:#ffffff;fill-opacity:1"
       d="m 4.3470328,236.63933 h 4.96 v -27.88 h -6.48 v 11.08 c 0,0.52 0,1.2 0,2 0,0.8 0.04,1.64 0.04,2.52 0,0.88 0.04,1.68 0.08,2.44 0,0.76 0.04,1.32 0.08,1.72 h -0.16 c -0.2,-0.16 -0.44,-0.4 -0.72,-0.68 -0.32,-0.28 -0.6,-0.56 -0.92,-0.88 -0.32000002,-0.32 -0.68000002,-0.6 -1.00000002,-0.92 -0.36,-0.32 -0.68,-0.6 -0.96,-0.88 l -18.83999978,-16.4 h -4.96 v 27.88 h 6.48 v -11.16 c 0,-0.48 -0.04,-1.12 -0.04,-1.96 0,-0.8 -0.04,-1.64 -0.04,-2.52 0,-0.84 -0.04,-1.64 -0.08,-2.44 -0.04,-0.76 -0.08,-1.36 -0.08,-1.76 h 0.16 c 0.16,0.24 0.44,0.48 0.76,0.8 0.32,0.32 0.68,0.64 1.08,1 0.36,0.36 0.72,0.72 1.12,1.04 0.4,0.36 0.72,0.68 1.04,0.92 z" /><path
       id="path101"
       style="fill:#ffffff;fill-opacity:1"
       d="m 27.063903,236.63933 h 6.48 v -22.88 h 12.8 v -5 h -32.04 v 5 h 12.76 z" /><path
       id="path103"
       style="fill:#ffffff;fill-opacity:1"
       d="m 58.117031,236.83933 h 17.6 c 1.32,0 2.44,-0.08 3.32,-0.28 0.88,-0.16 1.56,-0.52 2.12,-1 0.52,-0.48 0.88,-1.16 1.12,-2.04 0.24,-0.84 0.36,-1.92 0.36,-3.28 v -21.48 h -6.48 v 22.04 c 0,0.36 -0.08,0.6 -0.2,0.68 -0.16,0.08 -0.4,0.12 -0.76,0.12 h -16.52 c -0.4,0 -0.64,-0.04 -0.8,-0.12 -0.16,-0.08 -0.2,-0.32 -0.2,-0.68 v -22.04 h -6.48 v 21.48 c 0,1.36 0.08,2.44 0.32,3.28 0.2,0.88 0.56,1.56 1.12,2.04 0.52,0.48 1.24,0.84 2.12,1 0.88,0.2 2,0.28 3.36,0.28 z" /><path
       id="path105"
       style="fill:#ffffff;fill-opacity:1"
       d="m 90.257659,236.63933 h 6.48 v -27.88 h -6.48 z" /><path
       id="path107"
       style="fill:#ffffff;fill-opacity:1"
       d="m 114.51079,236.63933 h 6.48 v -22.88 h 12.8 v -5 h -32.04 v 5 h 12.76 z" /><path
       id="path109"
       style="fill:#ffffff;fill-opacity:1"
       d="m 138.7639,236.63933 h 6.48 v -27.88 h -6.48 z" /><path
       id="path111"
       style="fill:#ffffff;fill-opacity:1"
       d="m 166.05704,236.63933 h 4.32 l 16.12,-27.88 h -7.28 l -7.56,13.72 c -0.24,0.4 -0.52,0.92 -0.84,1.48 -0.32,0.56 -0.6,1.16 -0.92,1.72 -0.32,0.6 -0.64,1.16 -0.92,1.68 -0.28,0.56 -0.48,0.96 -0.64,1.28 h -0.08 c -0.24,-0.4 -0.48,-0.84 -0.72,-1.4 -0.28,-0.52 -0.56,-1.08 -0.88,-1.64 -0.32,-0.56 -0.6,-1.16 -0.92,-1.72 -0.32,-0.56 -0.56,-1.04 -0.8,-1.52 l -7.52,-13.6 h -7.48 z" /><path
       id="path113"
       style="fill:#ffffff;fill-opacity:1"
       d="m 191.17641,236.63933 h 29.32 v -5.24 h -22.84 v -6.76 h 15.16 v -4.96 h -15.16 v -5.92 h 22.56 v -5 h -29.04 z" /></g><g
     style="display:inline"
     id="layer1" /></svg>