<?xml version="1.0" encoding="UTF-8" standalone="no"?>
<svg
   xmlns:dc="http://purl.org/dc/elements/1.1/"
   xmlns:cc="http://creativecommons.org/ns#"
   xmlns:rdf="http://www.w3.org/1999/02/22-rdf-syntax-ns#"
   xmlns:svg="http://www.w3.org/2000/svg"
   xmlns="http://www.w3.org/2000/svg"
   version="1.1"
   id="svg2"
   xml:space="preserve"
   width="586.90094"
   height="287.10452"
   viewBox="0 0 586.90094 287.10452"><metadata
     id="metadata8"><rdf:RDF><cc:Work
         rdf:about=""><dc:format>image/svg+xml</dc:format><dc:type
           rdf:resource="http://purl.org/dc/dcmitype/StillImage" /><dc:title></dc:title></cc:Work></rdf:RDF></metadata><defs
     id="defs6"><clipPath
       clipPathUnits="userSpaceOnUse"
       id="clipPath20"><path
         d="M 0,648 H 1152 V 0 H 0 Z"
         id="path18" /></clipPath></defs><g
     id="g10"
     transform="matrix(1.3333333,0,0,-1.3333333,-474.54985,575.55199)"><g
       id="g14"><g
         id="g16"
         clip-path="url(#clipPath20)"><g
           id="g22"
           transform="translate(506.1904,216.3359)"><path
             d="m 0,0 h -11.521 c -1.192,0 -2.007,0.207 -2.443,0.624 -0.435,0.414 -0.654,1.239 -0.654,2.472 v 7.821 c 0,1.221 0.215,2.042 0.645,2.465 0.429,0.422 1.246,0.634 2.452,0.634 H 0 v -1.81 h -11.48 c -0.362,0 -0.601,-0.045 -0.714,-0.132 -0.114,-0.088 -0.172,-0.27 -0.172,-0.553 V 2.614 c 0,-0.296 0.058,-0.482 0.172,-0.562 0.113,-0.08 0.352,-0.121 0.714,-0.121 H 0 Z"
             style="fill:#fd2b12;fill-opacity:1;fill-rule:nonzero;stroke:none"
             id="path24" /></g><g
           id="g26"
           transform="translate(526.9761,228.1416)"><path
             d="m 0,0 -3.969,-6.818 h 7.97 l -3.987,6.81 z M 9.494,-11.806 H 6.921 L 5.049,-8.609 H -5.012 l -1.86,-3.197 H -9.365 L -1.042,2.21 h 2.193 z"
             style="fill:#fd2b12;fill-opacity:1;fill-rule:nonzero;stroke:none"
             id="path28" /></g><g
           id="g30"
           transform="translate(561.0615,224.459)"><path
             d="m 0,0 v 3.397 c 0,0.296 -0.057,0.487 -0.17,0.575 -0.115,0.087 -0.352,0.13 -0.714,0.13 h -9.35 v -4.786 h 9.39 c 0.349,0 0.576,0.043 0.683,0.132 C -0.053,-0.466 0,-0.281 0,0 m -0.643,-2.532 h -9.591 v -5.591 h -2.252 V 5.893 H -0.704 C 0.45,5.893 1.23,5.708 1.64,5.339 2.048,4.969 2.252,4.29 2.252,3.297 V 0.142 c 0,-1.006 -0.198,-1.704 -0.593,-2.091 -0.395,-0.39 -1.163,-0.583 -2.302,-0.583"
             style="fill:#fd2b12;fill-opacity:1;fill-rule:nonzero;stroke:none"
             id="path32" /></g><path
           d="m 579.057,216.336 h -2.252 v 14.016 h 2.252 z"
           style="fill:#fd2b12;fill-opacity:1;fill-rule:nonzero;stroke:none"
           id="path34" /><g
           id="g36"
           transform="translate(600.5303,216.3359)"><path
             d="m 0,0 h -2.272 v 12.206 h -6.897 v 1.81 H 6.876 v -1.81 H 0 Z"
             style="fill:#fd2b12;fill-opacity:1;fill-rule:nonzero;stroke:none"
             id="path38" /></g><g
           id="g40"
           transform="translate(625.3975,228.1416)"><path
             d="m 0,0 -3.969,-6.818 h 7.97 l -3.986,6.81 z M 9.494,-11.806 H 6.922 L 5.05,-8.609 H -5.012 l -1.859,-3.197 H -9.365 L -1.041,2.21 h 2.192 z"
             style="fill:#fd2b12;fill-opacity:1;fill-rule:nonzero;stroke:none"
             id="path42" /></g><g
           id="g44"
           transform="translate(660.4268,216.3359)"><path
             d="m 0,0 h -13.431 v 14.016 h 2.252 V 1.931 H 0 Z"
             style="fill:#fd2b12;fill-opacity:1;fill-rule:nonzero;stroke:none"
             id="path46" /></g><g
           id="g48"
           transform="translate(615.6211,319.3857)"><path
             d="m 0,0 c -1.775,-1.172 -3.627,-2.243 -5.527,-3.206 l 8.082,-8.082 H 13.396 L 8.794,-6.607 1.297,0.89 C 0.886,0.602 0.411,0.271 0,0"
             style="fill:#ffffff;fill-opacity:1;fill-rule:nonzero;stroke:none"
             id="path50" /></g><g
           id="g52"
           transform="translate(545.2729,391.9204)"><path
             d="M 0,0 C -1.475,-2.232 -2.766,-4.594 -3.855,-7.065 L 2.091,-13.011 26.74,-37.66 46.842,-57.762 c 1.243,0.276 2.472,0.622 3.679,1.047 1.48,0.52 2.924,1.152 4.312,1.882 L 32.201,-32.2 5.592,-5.592 c 7.015,11.596 19.747,19.363 34.26,19.363 10.603,0 20.253,-4.146 27.42,-10.9 7.747,-7.301 12.591,-17.65 12.591,-29.11 0,-14.513 -7.768,-27.246 -19.363,-34.261 -2.33,-1.408 -4.814,-2.584 -7.419,-3.5 -3.157,-1.109 -6.492,-1.831 -9.95,-2.114 -1.082,-0.088 -2.174,-0.136 -3.279,-0.136 -22.061,0 -40.011,17.949 -40.011,40.011 0,1.103 0.051,2.194 0.141,3.274 0.029,0.343 0.062,0.685 0.099,1.026 l -6.683,6.682 c -0.834,-3.527 -1.278,-7.203 -1.278,-10.982 0,-26.32 21.413,-47.733 47.732,-47.733 3.453,0 6.82,0.371 10.066,1.071 3.163,0.683 6.21,1.679 9.109,2.954 2.471,1.089 4.833,2.381 7.064,3.855 12.939,8.548 21.493,23.219 21.493,39.853 0,13.589 -5.708,25.869 -14.852,34.571 C 64.166,16.483 52.583,21.493 39.852,21.493 23.219,21.493 8.547,12.938 0,0"
             style="fill:#ffffff;fill-opacity:1;fill-rule:nonzero;stroke:none"
             id="path54" /></g><g
           id="g56"
           transform="translate(604.6621,310.79)"><path
             d="m 0,0 -0.52,-0.181 c -6.112,-2.116 -12.51,-3.189 -19.017,-3.189 -32.125,0 -58.261,26.136 -58.261,58.261 0,32.126 26.136,58.262 58.261,58.262 5.728,0 11.391,-0.834 16.831,-2.479 l 0.503,-0.152 6.076,6.076 -1.307,0.466 c -7.087,2.528 -14.524,3.81 -22.103,3.81 -36.383,0 -65.983,-29.6 -65.983,-65.983 0,-36.383 29.6,-65.983 65.983,-65.983 8.373,0 16.539,1.556 24.27,4.625 l 1.241,0.492 z"
             style="fill:#fd2b12;fill-opacity:1;fill-rule:nonzero;stroke:none"
             id="path58" /></g><g
           id="g60"
           transform="translate(385.0894,253.9932)"><path
             d="m 0,0 v 16.181 c 0,0.34 -0.063,0.559 -0.191,0.658 -0.128,0.099 -0.376,0.149 -0.744,0.149 h -19.238 c -0.397,0 -0.666,-0.05 -0.807,-0.149 -0.143,-0.099 -0.212,-0.318 -0.212,-0.658 V 0 c 0,-0.312 0.069,-0.524 0.212,-0.638 0.141,-0.112 0.41,-0.17 0.806,-0.17 h 7.895 l -2.118,4.842 5.521,2.464 3.295,-7.306 h 4.651 c 0.366,0 0.613,0.058 0.74,0.17 C -0.063,-0.524 0,-0.312 0,0 m -0.042,-13.081 h -6.866 l -2.639,6.031 h -11.812 c -3.032,0 -5.092,0.488 -6.182,1.465 -1.092,0.977 -1.636,2.895 -1.636,5.755 v 15.587 c 0,2.859 0.544,4.777 1.635,5.755 1.089,0.975 3.149,1.464 6.179,1.464 H 0.17 c 3.029,0 5.089,-0.489 6.18,-1.464 1.089,-0.978 1.634,-2.896 1.634,-5.755 V 0.17 C 7.984,-2.69 7.441,-4.608 6.355,-5.585 5.269,-6.562 3.217,-7.05 0.198,-7.05 h -2.962 z"
             style="fill:#ffffff;fill-opacity:1;fill-rule:nonzero;stroke:none"
             id="path62" /></g><g
           id="g64"
           transform="translate(425.394,246.9434)"><path
             d="m 0,0 h -18.348 c -3.057,0 -5.124,0.48 -6.2,1.443 -1.076,0.963 -1.614,2.889 -1.614,5.777 v 22.593 h 7.942 V 7.05 c 0,-0.312 0.064,-0.525 0.191,-0.638 0.128,-0.112 0.389,-0.17 0.786,-0.17 h 16.181 c 0.368,0 0.616,0.058 0.744,0.17 0.127,0.113 0.19,0.326 0.19,0.638 V 29.813 H 7.814 V 7.22 C 7.814,4.359 7.269,2.441 6.179,1.465 5.089,0.487 3.029,0 0,0"
             style="fill:#ffffff;fill-opacity:1;fill-rule:nonzero;stroke:none"
             id="path66" /></g><path
           d="m 447.605,247.155 h -7.984 v 29.602 h 7.984 z"
           style="fill:#ffffff;fill-opacity:1;fill-rule:nonzero;stroke:none"
           id="path68" /><g
           id="g70"
           transform="translate(490.6704,247.1553)"><path
             d="m 0,0 h -6.073 l -16.85,14.771 c -1.728,1.41 -3.685,3.126 -5.872,5.147 h -0.128 c 0.17,-2.322 0.256,-5.408 0.256,-9.259 V 0 h -7.857 v 29.602 h 6.154 l 17.518,-15.403 c 1.868,-1.516 3.578,-3.018 5.13,-4.508 h 0.162 c -0.198,2.632 -0.297,5.732 -0.297,9.298 V 29.602 H 0 Z"
             style="fill:#ffffff;fill-opacity:1;fill-rule:nonzero;stroke:none"
             id="path72" /></g><g
           id="g74"
           transform="translate(515.5581,247.1553)"><path
             d="m 0,0 h -7.942 v 23.613 h -13.081 v 5.989 H 13.123 V 23.613 H 0 Z"
             style="fill:#ffffff;fill-opacity:1;fill-rule:nonzero;stroke:none"
             id="path76" /></g><g
           id="g78"
           transform="translate(720.4336,247.1553)"><path
             d="m 0,0 h -6.073 l -16.85,14.771 c -1.727,1.41 -3.684,3.126 -5.872,5.147 h -0.127 c 0.169,-2.322 0.255,-5.408 0.255,-9.259 V 0 h -7.857 v 29.602 h 6.155 l 17.517,-15.403 c 1.868,-1.516 3.578,-3.018 5.13,-4.508 h 0.162 c -0.198,2.632 -0.297,5.732 -0.297,9.298 V 29.602 H 0 Z"
             style="fill:#ffffff;fill-opacity:1;fill-rule:nonzero;stroke:none"
             id="path80" /></g><path
           d="m 563.931,270.78 h -31.385 v 6.006 h 31.385 z"
           style="fill:#ffffff;fill-opacity:1;fill-rule:nonzero;stroke:none"
           id="path82" /><path
           d="m 563.931,259.407 h -31.385 v 6.007 h 31.385 z"
           style="fill:#ffffff;fill-opacity:1;fill-rule:nonzero;stroke:none"
           id="path84" /><path
           d="m 796.088,259.407 h -31.386 v 6.007 h 31.386 z"
           style="fill:#ffffff;fill-opacity:1;fill-rule:nonzero;stroke:none"
           id="path86" /><path
           d="m 796.088,247.22 h -31.386 v 6.006 h 31.386 z"
           style="fill:#ffffff;fill-opacity:1;fill-rule:nonzero;stroke:none"
           id="path88" /><path
           d="m 678.091,259.407 h -31.385 v 6.007 h 31.385 z"
           style="fill:#ffffff;fill-opacity:1;fill-rule:nonzero;stroke:none"
           id="path90" /><path
           d="m 678.091,247.22 h -31.385 v 6.006 h 31.385 z"
           style="fill:#ffffff;fill-opacity:1;fill-rule:nonzero;stroke:none"
           id="path92" /><g
           id="g94"
           transform="translate(632.0654,247.1553)"><path
             d="m 0,0 h -25.27 v 6.158 h 24.208 c 0.368,0 0.616,0.05 0.744,0.149 0.127,0.099 0.19,0.318 0.19,0.659 v 4.671 c 0,0.311 -0.063,0.523 -0.19,0.636 -0.128,0.114 -0.376,0.17 -0.744,0.17 h -16.351 c -3.058,0 -5.132,0.453 -6.222,1.361 -1.09,0.904 -1.635,2.633 -1.635,5.18 v 4.162 c 0,2.492 0.559,4.19 1.677,5.097 1.119,0.905 3.179,1.359 6.18,1.359 h 62.474 v -5.776 h -61.497 c -0.369,0 -0.624,-0.05 -0.764,-0.149 -0.143,-0.099 -0.213,-0.319 -0.213,-0.658 v -4.035 c 0,-0.339 0.07,-0.559 0.213,-0.659 0.14,-0.098 0.395,-0.147 0.764,-0.147 H 0 c 3.028,0 5.096,-0.44 6.2,-1.317 1.105,-0.878 1.657,-2.548 1.657,-5.012 V 6.541 C 7.857,3.964 7.305,2.229 6.2,1.338 5.096,0.445 3.028,0 0,0"
             style="fill:#ffffff;fill-opacity:1;fill-rule:nonzero;stroke:none"
             id="path96" /></g><g
           id="g98"
           transform="translate(758.9971,247.1553)"><path
             d="m 0,0 h -24.42 c -3.03,0 -5.097,0.489 -6.201,1.465 -1.105,0.977 -1.656,2.894 -1.656,5.755 v 15.162 c 0,2.859 0.545,4.778 1.634,5.755 1.09,0.976 3.165,1.465 6.223,1.465 h 61.511 v -5.741 h -60.407 c -0.369,0 -0.622,-0.298 -0.765,-0.396 -0.141,-0.1 -0.211,-0.319 -0.211,-0.658 V 7.051 c 0,-0.313 0.07,-0.525 0.211,-0.638 0.143,-0.113 0.396,-0.17 0.765,-0.17 H 0 Z"
             style="fill:#ffffff;fill-opacity:1;fill-rule:nonzero;stroke:none"
             id="path100" /></g><g
           id="g102"
           transform="translate(594.5947,247.1553)"><path
             d="m 0,0 h -62.049 v 6.158 h 60.987 c 0.368,0 0.616,0.05 0.744,0.149 0.127,0.099 0.19,0.318 0.19,0.659 v 4.671 c 0,0.311 -0.063,0.523 -0.19,0.636 -0.128,0.114 -0.376,0.17 -0.744,0.17 h -16.351 c -3.058,0 -5.132,0.453 -6.222,1.361 -1.09,0.904 -1.635,2.633 -1.635,5.18 v 4.162 c 0,2.492 0.559,4.19 1.677,5.097 1.119,0.905 3.179,1.359 6.18,1.359 H 6.37 v -5.776 h -22.806 c -0.369,0 -0.624,-0.05 -0.764,-0.149 -0.143,-0.099 -0.213,-0.319 -0.213,-0.658 v -4.035 c 0,-0.339 0.07,-0.559 0.213,-0.659 0.14,-0.098 0.395,-0.147 0.764,-0.147 H 0 c 3.029,0 5.097,-0.44 6.201,-1.317 1.104,-0.878 1.656,-2.548 1.656,-5.012 V 6.541 C 7.857,3.964 7.305,2.229 6.201,1.338 5.097,0.445 3.029,0 0,0"
             style="fill:#ffffff;fill-opacity:1;fill-rule:nonzero;stroke:none"
             id="path104" /></g></g></g></g></svg>